<?xml version="1.0" encoding="UTF-8" standalone="no"?>
<!DOCTYPE svg PUBLIC "-//W3C//DTD SVG 1.1//EN" "http://www.w3.org/Graphics/SVG/1.1/DTD/svg11.dtd">
<svg width="100%" height="100%" viewBox="0 0 800 800" version="1.1" xmlns="http://www.w3.org/2000/svg" xmlns:xlink="http://www.w3.org/1999/xlink" xml:space="preserve" xmlns:serif="http://www.serif.com/" style="fill-rule:evenodd;clip-rule:evenodd;stroke-linejoin:round;stroke-miterlimit:1.41421;">
    <g id="Pillow">
        <path id="Fill" d="M760.39,50.648L760.39,752.123L49.52,752.123L49.52,50.648L760.39,50.648ZM404.955,360.757L520.945,245.549L562.636,286.959L446.646,402.168L562.636,517.377L520.945,558.787L404.955,443.579L288.965,558.787L247.273,517.377L363.263,402.168L247.273,286.959L288.965,245.549L404.955,360.757Z" style="fill:rgb(227,114,124);"/>
        <g id="Pillow-Outline" serif:id="Pillow Outline" transform="matrix(1.13653,0,0,1.12887,-54.6112,-51.5486)">
            <path d="M728.358,596.131C743.047,612.913 751.949,634.858 751.949,658.859C751.949,711.554 709.038,754.336 656.183,754.336C632.745,754.336 611.262,745.923 594.609,731.963L205.391,731.963C188.738,745.923 167.255,754.336 143.817,754.336C90.962,754.336 48.051,711.554 48.051,658.859C48.051,634.858 56.953,612.913 71.642,596.131L71.642,400L71.642,203.869C56.953,187.087 48.051,165.142 48.051,141.141C48.051,88.446 90.962,45.664 143.817,45.664C167.255,45.664 188.738,54.077 205.391,68.037L594.609,68.037C611.262,54.077 632.745,45.664 656.183,45.664C709.038,45.664 751.949,88.446 751.949,141.141C751.949,165.142 743.047,187.087 728.358,203.869L728.358,596.131ZM135.615,563.728L135.75,563.716L135.75,610.098C135.338,614.997 133.782,623.802 128.044,630.149L128.01,630.187C119.459,635.941 113.831,645.691 113.831,656.741C113.831,674.409 128.219,688.754 145.941,688.754C155.515,688.754 164.116,684.567 170.001,677.932L170.001,677.932C170.001,677.932 180.274,668.105 192.592,668.02L201.662,668.02L201.662,667.99L598.338,667.99L598.338,668.02L607.408,668.02C619.725,668.104 629.999,677.932 629.999,677.932L629.999,677.932C635.884,684.567 644.485,688.754 654.059,688.754C671.781,688.754 686.169,674.409 686.169,656.741C686.169,645.691 680.541,635.941 671.99,630.187L671.956,630.149C666.218,623.802 664.662,614.997 664.25,610.098L664.25,563.716L664.385,563.728L664.385,236.272L664.25,236.284L664.25,189.902C664.662,185.003 666.218,176.198 671.956,169.851L671.99,169.813C680.541,164.059 686.169,154.309 686.169,143.259C686.169,125.591 671.781,111.246 654.059,111.246C644.485,111.246 635.884,115.433 629.999,122.068L629.999,122.068C629.999,122.068 619.726,131.895 607.408,131.98L598.338,131.98L598.338,132.01L201.662,132.01L201.662,131.98L192.592,131.98C180.275,131.896 170.001,122.068 170.001,122.068L170.001,122.068C164.116,115.433 155.515,111.246 145.941,111.246C128.219,111.246 113.831,125.591 113.831,143.259C113.831,154.309 119.459,164.059 128.01,169.813L128.044,169.851C133.782,176.198 135.338,185.003 135.75,189.902L135.75,236.284L135.615,236.272L135.615,563.728Z" style="fill:rgb(51,51,51);"/>
        </g>
    </g>
</svg>
